<?xml version="1.0" encoding="UTF-8"?>
<svg version="1.1" xmlns="http://www.w3.org/2000/svg" width="132" height="132">
<path d="M0 0 C0.94875 0.4125 1.8975 0.825 2.875 1.25 C14.63332677 6.99851531 22.20072754 15.92212614 27 28 C29.91599162 36.65797513 28.85183847 48.28710084 25.32421875 56.54296875 C19.0067656 68.26473285 9.26875578 76.11329219 -3 81 C-7.29612854 82.26327807 -11.59029204 83.22899446 -16 84 C-16.98154053 84.17273438 -17.96308105 84.34546875 -18.97436523 84.5234375 C-24.13449205 85.24805465 -29.31442094 85.16244661 -34.515625 85.16796875 C-35.60840759 85.17129715 -36.70119019 85.17462555 -37.8270874 85.17805481 C-40.12658265 85.18309945 -42.42608516 85.1854639 -44.72558594 85.18530273 C-48.25207372 85.18750129 -51.77825449 85.20571602 -55.3046875 85.22460938 C-57.5416656 85.22754134 -59.77864518 85.22952745 -62.015625 85.23046875 C-63.07187073 85.23765427 -64.12811646 85.24483978 -65.21636963 85.25224304 C-66.19458679 85.24916641 -67.17280396 85.24608978 -68.18066406 85.24291992 C-69.4713681 85.24505745 -69.4713681 85.24505745 -70.78814697 85.24723816 C-73 85 -73 85 -76 83 C-76.46875 80.1796875 -76.46875 80.1796875 -76 77 C-74.03125 74.4453125 -74.03125 74.4453125 -71.5 72.125 C-70.24703125 70.95324219 -70.24703125 70.95324219 -68.96875 69.7578125 C-68.3190625 69.17773438 -67.669375 68.59765625 -67 68 C-68.87143015 63.09088614 -71.25448043 58.5041492 -73.66015625 53.83984375 C-77.56547375 45.56239236 -77.28401458 34.72536669 -74.4375 26.125 C-69.02408635 13.34858666 -58.72497439 4.7759561 -46.30859375 -0.7734375 C-31.86628142 -6.12749425 -14.14979697 -6.28879865 0 0 Z M-52 30 C-51.83492354 32.57540213 -51.83492354 32.57540213 -51 35 C-48.58613262 36.20693369 -47.03502098 36.13957163 -44.33837891 36.16113281 C-43.37042389 36.17074036 -42.40246887 36.1803479 -41.40518188 36.19024658 C-40.35623749 36.19449646 -39.30729309 36.19874634 -38.2265625 36.203125 C-37.15127289 36.20882507 -36.07598328 36.21452515 -34.96810913 36.22039795 C-32.69001248 36.22985603 -30.4119021 36.23638513 -28.13378906 36.24023438 C-24.64624193 36.24994088 -21.15928374 36.28095758 -17.671875 36.3125 C-15.46094101 36.31902979 -13.25000279 36.32428035 -11.0390625 36.328125 C-9.99416656 36.3404718 -8.94927063 36.3528186 -7.87271118 36.36553955 C-6.89845184 36.36253845 -5.9241925 36.35953735 -4.92041016 36.35644531 C-3.63706284 36.36191376 -3.63706284 36.36191376 -2.32778931 36.36749268 C0.48489618 35.92344849 1.87920529 34.85169443 4 33 C3.65213292 31.02463255 3.65213292 31.02463255 3 29 C0.53062549 27.76531275 -1.11527159 27.86649127 -3.87695312 27.85473633 C-4.89140503 27.84835648 -5.90585693 27.84197662 -6.9510498 27.83540344 C-8.05001587 27.83429062 -9.14898193 27.8331778 -10.28125 27.83203125 C-11.96788757 27.82703865 -11.96788757 27.82703865 -13.68859863 27.82194519 C-16.06925039 27.81687589 -18.44990926 27.81453687 -20.83056641 27.81469727 C-24.48481863 27.81250909 -28.13876992 27.79434854 -31.79296875 27.77539062 C-34.10156146 27.77245713 -36.41015562 27.77047204 -38.71875 27.76953125 C-39.81771606 27.76234573 -40.91668213 27.75516022 -42.0489502 27.74775696 C-43.0634021 27.75083359 -44.077854 27.75391022 -45.12304688 27.75708008 C-46.01858276 27.75565506 -46.91411865 27.75423004 -47.83679199 27.75276184 C-50.21175925 27.79693326 -50.21175925 27.79693326 -52 30 Z M-51 45 C-51.33 46.65 -51.66 48.3 -52 50 C-49.491779 52.508221 -47.93846057 52.25629767 -44.51405334 52.30354309 C-43.7682048 52.30263168 -43.02235626 52.30172028 -42.25390625 52.30078125 C-41.10353127 52.30720894 -41.10353127 52.30720894 -39.92991638 52.31376648 C-38.30672188 52.31951323 -36.68350162 52.32000749 -35.06030273 52.31567383 C-32.57556206 52.3125166 -30.09201498 52.33595754 -27.60742188 52.36132812 C-26.0312515 52.36360136 -24.45507793 52.3643045 -22.87890625 52.36328125 C-22.13508194 52.372491 -21.39125763 52.38170074 -20.62489319 52.39118958 C-16.52353604 52.38109535 -16.52353604 52.38109535 -13.00756836 50.47729492 C-12.50882202 49.74603394 -12.50882202 49.74603394 -12 49 C-12.66 47.68 -13.32 46.36 -14 45 C-26.21 45 -38.42 45 -51 45 Z " fill="#2463EA" transform="translate(79,10)"/>
<path d="M0 0 C7.2724542 3.14221852 11.81111764 9.89405137 14.9375 16.9375 C18.71304759 27.0141304 19.0019207 36.7154757 14.85546875 46.77734375 C12.8882567 50.82468939 10.77374366 54.44993159 8 58 C9.39170541 61.21919737 11.0015693 63.07544963 13.625 65.375 C16.30204826 67.9520755 16.9356167 68.56541274 17.5 72.375 C17 75 17 75 16 76 C14.13639677 76.11492323 12.26843004 76.15966243 10.40136719 76.17700195 C9.20211609 76.18983719 8.00286499 76.20267242 6.76727295 76.21589661 C5.45704163 76.22328354 4.1468103 76.23067047 2.796875 76.23828125 C2.12999916 76.24235678 1.46312332 76.2464323 0.77603912 76.25063133 C-2.7661661 76.27153939 -6.30833226 76.28581011 -9.85058594 76.29516602 C-13.47824611 76.30613027 -17.10527567 76.3403971 -20.73271561 76.38033772 C-23.54523695 76.40676076 -26.35761546 76.41488115 -29.17024994 76.41844749 C-31.14689445 76.42557839 -33.12344036 76.45192635 -35.09991455 76.47883606 C-51.39896038 76.44029039 -63.84991442 71.15498971 -75.73828125 60.28125 C-78.02202527 57.97778453 -80.02332771 55.56922165 -82 53 C-81.67 52.34 -81.34 51.68 -81 51 C-79.83766846 51.02356567 -79.83766846 51.02356567 -78.65185547 51.04760742 C-54.51938382 51.47271488 -32.38509641 50.69911232 -13.8125 33.25 C-4.71987753 23.72267048 -1.04121119 12.9110188 0 0 Z " fill="#60A4FA" transform="translate(114,50)"/>
</svg>
